<svg width="50" height="50" viewBox="0 0 50 50" fill="none" xmlns="http://www.w3.org/2000/svg">
<rect width="50" height="50" rx="25" fill="url(#g_dl)"/>
<path d="M29 15V19M21 15V19" stroke="white" stroke-width="1.5" stroke-linecap="round" stroke-linejoin="round"/>
<path d="M26 17H24C20.2288 17 18.3431 17 17.1716 18.1716C16 19.3431 16 21.2288 16 25V27C16 30.7712 16 32.6569 17.1716 33.8284C18.3431 35 20.2288 35 24 35H26C29.7712 35 31.6569 35 32.8284 33.8284C34 32.6569 34 30.7712 34 27V25C34 21.2288 34 19.3431 32.8284 18.1716C31.6569 17 29.7712 17 26 17Z" stroke="white" stroke-width="1.5" stroke-linecap="round" stroke-linejoin="round"/>
<path d="M16 23H34" stroke="white" stroke-width="1.5" stroke-linecap="round" stroke-linejoin="round"/>
<path d="M25.1258 27H25.0008M25.1258 31H25.0008M20.625 27H20.5M20.625 31H20.5M29.625 27H29.5M25.2508 27C25.2508 27.1381 25.1389 27.25 25.0008 27.25C24.8628 27.25 24.7508 27.1381 24.7508 27C24.7508 26.8619 24.8628 26.75 25.0008 26.75C25.1389 26.75 25.2508 26.8619 25.2508 27ZM25.2508 31C25.2508 31.1381 25.1389 31.25 25.0008 31.25C24.8628 31.25 24.7508 31.1381 24.7508 31C24.7508 30.8619 24.8628 30.75 25.0008 30.75C25.1389 30.75 25.2508 30.8619 25.2508 31ZM20.75 27C20.75 27.1381 20.6381 27.25 20.5 27.25C20.3619 27.25 20.25 27.1381 20.25 27C20.25 26.8619 20.3619 26.75 20.5 26.75C20.6381 26.75 20.75 26.8619 20.75 27ZM20.75 31C20.75 31.1381 20.6381 31.25 20.5 31.25C20.3619 31.25 20.25 31.1381 20.25 31C20.25 30.8619 20.3619 30.75 20.5 30.75C20.6381 30.75 20.75 30.8619 20.75 31ZM29.75 27C29.75 27.1381 29.6381 27.25 29.5 27.25C29.3619 27.25 29.25 27.1381 29.25 27C29.25 26.8619 29.3619 26.75 29.5 26.75C29.6381 26.75 29.75 26.8619 29.75 27Z" stroke="white" stroke-width="1.5" stroke-linecap="round" stroke-linejoin="round"/>
<rect x="1" y="1" width="48" height="48" rx="24" stroke="white" stroke-opacity="0.15" stroke-width="2"/>
<defs><linearGradient id="g_dl" x1="25" y1="0" x2="25" y2="50" gradientUnits="userSpaceOnUse"><stop stop-color="#4F1AD6"/><stop offset="1" stop-color="#8059E3"/></linearGradient></defs>
</svg>
