<svg width="50" height="50" viewBox="0 0 50 50" fill="none" xmlns="http://www.w3.org/2000/svg">
<rect width="50" height="50" rx="25" fill="url(#g_fc)"/>
<path d="M24.8013 19.4895L26.2869 18.0039C27.9596 16.3312 30.1495 15.6374 32.4671 15.524C33.3686 15.4799 33.8193 15.4578 34.1807 15.8193C34.5422 16.1807 34.5201 16.6314 34.476 17.5329C34.3626 19.8505 33.6688 22.0404 31.9961 23.7131L30.5105 25.1987C29.2871 26.4221 28.9393 26.77 29.1961 28.097C29.4496 29.1107 29.6949 30.0923 28.9578 30.8294C28.0637 31.7235 27.2481 31.7235 26.354 30.8294L19.1706 23.646C18.2765 22.7519 18.2765 21.9363 19.1706 21.0422C19.9077 20.3051 20.8893 20.5504 21.903 20.8039C23.23 21.0607 23.5779 20.7129 24.8013 19.4895Z" stroke="white" stroke-width="1.5" stroke-linejoin="round"/>
<path d="M15.5 34.5L20.5 29.5" stroke="white" stroke-width="1.5" stroke-linecap="round"/>
<path d="M21.5 34.5L23.5 32.5" stroke="white" stroke-width="1.5" stroke-linecap="round"/>
<path d="M15.5 28.5L17.5 26.5" stroke="white" stroke-width="1.5" stroke-linecap="round"/>
<path d="M30.125 20H30M30.25 20C30.25 20.1381 30.1381 20.25 30 20.25C29.8619 20.25 29.75 20.1381 29.75 20C29.75 19.8619 29.8619 19.75 30 19.75C30.1381 19.75 30.25 19.8619 30.25 20Z" stroke="white" stroke-width="1.5" stroke-linecap="round" stroke-linejoin="round"/>
<rect x="1" y="1" width="48" height="48" rx="24" stroke="white" stroke-opacity="0.15" stroke-width="2"/>
<defs><linearGradient id="g_fc" x1="25" y1="0" x2="25" y2="50" gradientUnits="userSpaceOnUse"><stop stop-color="#4F1AD6"/><stop offset="1" stop-color="#8059E3"/></linearGradient></defs>
</svg>
