<svg id="eVEqZkQG0Ow1" xmlns="http://www.w3.org/2000/svg" xmlns:xlink="http://www.w3.org/1999/xlink" viewBox="0 0 512 512" shape-rendering="geometricPrecision" text-rendering="geometricPrecision"><defs><linearGradient id="eVEqZkQG0Ow2-fill" x1="0" y1="0.754012" x2="1" y2="0.250442" spreadMethod="pad" gradientUnits="objectBoundingBox" gradientTransform="translate(0 0)"><stop id="eVEqZkQG0Ow2-fill-0" offset="0%" stop-color="#0823bf"/><stop id="eVEqZkQG0Ow2-fill-1" offset="100%" stop-color="#34e9fc"/></linearGradient><linearGradient id="eVEqZkQG0Ow3-fill" x1="-0.785714" y1="1.146919" x2="1.785714" y2="-0.122953" spreadMethod="pad" gradientUnits="objectBoundingBox" gradientTransform="translate(0 0)"><stop id="eVEqZkQG0Ow3-fill-0" offset="0%" stop-color="#0823bf"/><stop id="eVEqZkQG0Ow3-fill-1" offset="100%" stop-color="#34e9fc"/></linearGradient><linearGradient id="eVEqZkQG0Ow7-fill" x1="0" y1="0.20919" x2="2.571171" y2="-0.807565" spreadMethod="pad" gradientUnits="objectBoundingBox" gradientTransform="translate(0 0)"><stop id="eVEqZkQG0Ow7-fill-0" offset="0%" stop-color="#59b4fb"/><stop id="eVEqZkQG0Ow7-fill-1" offset="100%" stop-color="#30ecfc"/></linearGradient></defs><path d="M455.53225,371.2L256,486.4L74.73948,381.74919l55.42562-32L256,422.4l144.10663-83.2v-145.30163l55.42562-32v209.30163ZM56.46775,140.8L256,25.6L440.17425,131.93306l-55.42562,32L256,89.60001l-144.10663,83.2v148.66611l-55.42562,32v-212.66612Z" fill="url(#eVEqZkQG0Ow2-fill)" stroke-width="0"/><path d="M333.59588,300.8L256,345.6l-59.32415-34.25081l136.92002-79.05081.00001,68.50162ZM178.40412,211.2L256,166.4l62.23788,35.93305-139.83375,80.73306L178.40412,211.2Z" fill="url(#eVEqZkQG0Ow3-fill)" stroke-width="0"/><path d="M12.102353,2.890936l63.960213.155723-6.358802,11.064769-63.999993.017202L12.102353,2.890936Z" transform="matrix(0.865891 0.500233 -0.500233 0.865891 58.596513 125.712937)" fill="#0929c1" stroke-width="0"/><path d="M9.075553,8.220931l72.080795-.438713-3.69366,6.54535L5.703771,14.12863L9.075553,8.220931Z" transform="matrix(0.865891 0.500233 -0.500233 0.865891 180.532882 196.146462)" fill="#0929c1" stroke-width="0"/><path d="M12.102353,2.890936l63.960213.155723-6.358802,11.064769-63.999993.017202L12.102353,2.890936Z" transform="matrix(0.865891 0.500233 -0.500233 0.865891 391.096506 330.586311)" fill="#0929c1" stroke-width="0"/><path d="M0,45.151302L77.59587,1.947997l.00001,66.038771L0,111.176065v-66.024763Z" transform="matrix(1 0 0 1.037294 256 230.277734)" fill="url(#eVEqZkQG0Ow7-fill)" stroke-width="0"/></svg>
