<svg xmlns="http://www.w3.org/2000/svg" width="44" height="44" fill="none"><mask id="a" width="44" height="44" x="0" y="0" maskUnits="userSpaceOnUse" style="mask-type:alpha"><rect width="44" height="44" fill="#D9D9D9" rx="22"/></mask><g mask="url(#a)"><g filter="url(#b)"><rect width="44" height="44" fill="url(#c)" rx="22"/></g><g filter="url(#d)"><path fill="#000" fill-rule="evenodd" d="M32 22c0 5.523-4.477 10-10 10s-10-4.477-10-10 4.477-10 10-10 10 4.477 10 10Zm-8.438-5.313a1.562 1.562 0 1 1-3.124 0 1.562 1.562 0 0 1 3.125 0ZM27 22h-3.226l2.232 6.25H23.35L22 24.466l-1.351 3.784h-2.655L20.226 22H17v-2.5h10V22Z" clip-rule="evenodd"/></g></g><defs><filter id="b" width="44" height="48" x="0" y="0" color-interpolation-filters="sRGB" filterUnits="userSpaceOnUse"><feFlood flood-opacity="0" result="BackgroundImageFix"/><feBlend in="SourceGraphic" in2="BackgroundImageFix" result="shape"/><feColorMatrix in="SourceAlpha" result="hardAlpha" values="0 0 0 0 0 0 0 0 0 0 0 0 0 0 0 0 0 0 127 0"/><feOffset dy="4"/><feGaussianBlur stdDeviation="2"/><feComposite in2="hardAlpha" k2="-1" k3="1" operator="arithmetic"/><feColorMatrix values="0 0 0 0 0.826025 0 0 0 0 0.826025 0 0 0 0 0.826025 0 0 0 0.15 0"/><feBlend in2="shape" result="effect1_innerShadow_1073_159"/></filter><filter id="d" width="28" height="28" x="8" y="12" color-interpolation-filters="sRGB" filterUnits="userSpaceOnUse"><feFlood flood-opacity="0" result="BackgroundImageFix"/><feColorMatrix in="SourceAlpha" result="hardAlpha" values="0 0 0 0 0 0 0 0 0 0 0 0 0 0 0 0 0 0 127 0"/><feOffset dy="4"/><feGaussianBlur stdDeviation="2"/><feComposite in2="hardAlpha" operator="out"/><feColorMatrix values="0 0 0 0 0 0 0 0 0 0 0 0 0 0 0 0 0 0 0.25 0"/><feBlend in2="BackgroundImageFix" result="effect1_dropShadow_1073_159"/><feBlend in="SourceGraphic" in2="effect1_dropShadow_1073_159" result="shape"/></filter><linearGradient id="c" x1="22" x2="22" y1="0" y2="44" gradientUnits="userSpaceOnUse"><stop stop-color="#FBFBFB"/><stop offset="1" stop-color="#D0D0D0"/></linearGradient></defs></svg>