<svg xmlns="http://www.w3.org/2000/svg" width="44" height="44" fill="none"><mask id="a" width="44" height="44" x="0" y="0" maskUnits="userSpaceOnUse" style="mask-type:alpha"><rect width="44" height="44" fill="#D9D9D9" rx="22"/></mask><g mask="url(#a)"><g filter="url(#b)"><rect width="44" height="44" fill="url(#c)" rx="22"/></g><g filter="url(#d)"><path fill="#fff" fill-rule="evenodd" d="M14.5 14a2 2 0 0 1 2-2h11a2 2 0 0 1 2 2v16a2 2 0 0 1-2 2h-11a2 2 0 0 1-2-2V14Zm2.5 1.5a1 1 0 0 1 1-1h8a1 1 0 0 1 1 1v3a1 1 0 0 1-1 1h-8a1 1 0 0 1-1-1v-3Zm1.25 9a1.25 1.25 0 1 0 0-2.5 1.25 1.25 0 0 0 0 2.5Zm1.25 3.75a1.25 1.25 0 1 1-2.5 0 1.25 1.25 0 0 1 2.5 0ZM22 24.5a1.25 1.25 0 1 0 0-2.5 1.25 1.25 0 0 0 0 2.5Zm5-1.25a1.25 1.25 0 1 1-2.5 0 1.25 1.25 0 0 1 2.5 0ZM22 27a1.25 1.25 0 0 0 0 2.5h3.75a1.25 1.25 0 1 0 0-2.5H22Z" clip-rule="evenodd"/></g><rect width="10" height="5" x="17" y="14.5" fill="#fff" fill-opacity=".5" rx="1"/></g><defs><filter id="b" width="44" height="48" x="0" y="0" color-interpolation-filters="sRGB" filterUnits="userSpaceOnUse"><feFlood flood-opacity="0" result="BackgroundImageFix"/><feBlend in="SourceGraphic" in2="BackgroundImageFix" result="shape"/><feColorMatrix in="SourceAlpha" result="hardAlpha" values="0 0 0 0 0 0 0 0 0 0 0 0 0 0 0 0 0 0 127 0"/><feOffset dy="4"/><feGaussianBlur stdDeviation="2"/><feComposite in2="hardAlpha" k2="-1" k3="1" operator="arithmetic"/><feColorMatrix values="0 0 0 0 0.826025 0 0 0 0 0.826025 0 0 0 0 0.826025 0 0 0 0.15 0"/><feBlend in2="shape" result="effect1_innerShadow_1073_213"/></filter><filter id="d" width="23" height="28" x="10.5" y="12" color-interpolation-filters="sRGB" filterUnits="userSpaceOnUse"><feFlood flood-opacity="0" result="BackgroundImageFix"/><feColorMatrix in="SourceAlpha" result="hardAlpha" values="0 0 0 0 0 0 0 0 0 0 0 0 0 0 0 0 0 0 127 0"/><feOffset dy="4"/><feGaussianBlur stdDeviation="2"/><feComposite in2="hardAlpha" operator="out"/><feColorMatrix values="0 0 0 0 0 0 0 0 0 0 0 0 0 0 0 0 0 0 0.25 0"/><feBlend in2="BackgroundImageFix" result="effect1_dropShadow_1073_213"/><feBlend in="SourceGraphic" in2="effect1_dropShadow_1073_213" result="shape"/></filter><linearGradient id="c" x1="22" x2="22" y1="0" y2="44" gradientUnits="userSpaceOnUse"><stop stop-color="#00AC3C"/><stop offset="1" stop-color="#138D3E"/></linearGradient></defs></svg>