<svg xmlns="http://www.w3.org/2000/svg" width="44" height="44" fill="none"><mask id="a" width="44" height="44" x="0" y="0" maskUnits="userSpaceOnUse" style="mask-type:alpha"><rect width="44" height="44" fill="#D9D9D9" rx="22"/></mask><g mask="url(#a)"><g filter="url(#b)"><rect width="44" height="44" fill="url(#c)" rx="22"/></g><g filter="url(#d)"><path fill="#FEFDF9" fill-rule="evenodd" d="M19.77 30.75 19.631 32h2.516l.139-1.25h2.218a4.996 4.996 0 0 0 1.084-9.873l-2.152-.479.377-3.398h4.437v-3.75h-4.02l.139-1.25h-2.516l-.139 1.25h-2.218a4.996 4.996 0 0 0-1.084 9.873l2.152.479L20.187 27H15.75v3.75h4.02ZM22.702 27h1.802a1.246 1.246 0 0 0 .27-2.463l-1.755-.39L22.702 27Zm-1.721-7.147L21.298 17h-1.802a1.246 1.246 0 0 0-.27 2.463l1.755.39Z" clip-rule="evenodd"/></g></g><defs><filter id="b" width="44" height="48" x="0" y="0" color-interpolation-filters="sRGB" filterUnits="userSpaceOnUse"><feFlood flood-opacity="0" result="BackgroundImageFix"/><feBlend in="SourceGraphic" in2="BackgroundImageFix" result="shape"/><feColorMatrix in="SourceAlpha" result="hardAlpha" values="0 0 0 0 0 0 0 0 0 0 0 0 0 0 0 0 0 0 127 0"/><feOffset dy="4"/><feGaussianBlur stdDeviation="2"/><feComposite in2="hardAlpha" k2="-1" k3="1" operator="arithmetic"/><feColorMatrix values="0 0 0 0 1 0 0 0 0 1 0 0 0 0 1 0 0 0 0.15 0"/><feBlend in2="shape" result="effect1_innerShadow_1073_155"/></filter><filter id="d" width="23" height="28" x="10.5" y="12" color-interpolation-filters="sRGB" filterUnits="userSpaceOnUse"><feFlood flood-opacity="0" result="BackgroundImageFix"/><feColorMatrix in="SourceAlpha" result="hardAlpha" values="0 0 0 0 0 0 0 0 0 0 0 0 0 0 0 0 0 0 127 0"/><feOffset dy="4"/><feGaussianBlur stdDeviation="2"/><feComposite in2="hardAlpha" operator="out"/><feColorMatrix values="0 0 0 0 0 0 0 0 0 0 0 0 0 0 0 0 0 0 0.25 0"/><feBlend in2="BackgroundImageFix" result="effect1_dropShadow_1073_155"/><feBlend in="SourceGraphic" in2="effect1_dropShadow_1073_155" result="shape"/></filter><linearGradient id="c" x1="22" x2="22" y1="0" y2="44" gradientUnits="userSpaceOnUse"><stop stop-color="#FE8550"/><stop offset="1" stop-color="#E14601"/></linearGradient></defs></svg>